<svg width="14" height="16" viewBox="0 0 14 16" fill="none" xmlns="http://www.w3.org/2000/svg">
<path d="M5.00002 7.69946C5.00002 8.11368 4.64185 8.44946 4.20002 8.44946C3.7582 8.44946 3.40002 8.11368 3.40002 7.69946C3.40002 7.28525 3.7582 6.94946 4.20002 6.94946C4.64185 6.94946 5.00002 7.28525 5.00002 7.69946Z" fill="#8D5535"/>
<path d="M6.99983 8.44946C7.44166 8.44946 7.79983 8.11368 7.79983 7.69946C7.79983 7.28525 7.44166 6.94946 6.99983 6.94946C6.558 6.94946 6.19983 7.28525 6.19983 7.69946C6.19983 8.11368 6.558 8.44946 6.99983 8.44946Z" fill="#8D5535"/>
<path d="M10.5996 7.69946C10.5996 8.11368 10.2415 8.44946 9.79963 8.44946C9.35781 8.44946 8.99963 8.11368 8.99963 7.69946C8.99963 7.28525 9.35781 6.94946 9.79963 6.94946C10.2415 6.94946 10.5996 7.28525 10.5996 7.69946Z" fill="#8D5535"/>
<path fill-rule="evenodd" clip-rule="evenodd" d="M0.0699463 7.2097C0.0699463 3.7497 3.16995 0.939697 6.99995 0.939697C10.8299 0.939697 13.9299 3.7497 13.9299 7.2097C13.9299 10.6697 10.8299 13.4797 6.99995 13.4797C6.21491 13.4944 5.43329 13.3726 4.68995 13.1197C4.02419 13.755 3.30111 14.3275 2.52995 14.8297C2.30232 14.9855 2.03161 15.066 1.75584 15.0601C1.48007 15.0541 1.2131 14.9619 0.992434 14.7964C0.771767 14.6309 0.60849 14.4004 0.525538 14.1373C0.442587 13.8743 0.444128 13.5918 0.529946 13.3297C0.963408 12.2194 1.02654 10.9988 0.709946 9.8497C0.310748 9.02542 0.0925309 8.12527 0.0699463 7.2097ZM12.6799 7.1897C12.6799 4.4397 10.1299 2.1897 6.99995 2.1897C3.86995 2.1897 1.32995 4.4697 1.32995 7.2397C1.35656 7.99076 1.54412 8.72736 1.87995 9.3997C2.31091 10.8063 2.2581 12.3167 1.72995 13.6897V13.7497C1.75284 13.7561 1.77705 13.7561 1.79995 13.7497C2.51274 13.2955 3.18223 12.7766 3.79995 12.1997L4.35995 11.6397L5.10995 11.8997C5.71889 12.103 6.35805 12.2011 6.99995 12.1897C10.1299 12.1897 12.6799 9.9397 12.6799 7.1897Z" fill="#8D5535"/>
</svg>
