<svg width="35" height="36" viewBox="0 0 35 36" fill="none" xmlns="http://www.w3.org/2000/svg">
<path d="M6.66508 12.09L5.94508 9.49C5.76508 8.81 5.23508 8.29 4.56508 8.1L1.95508 7.38L4.66508 6.58C5.33508 6.38 5.85508 5.85 6.02508 5.17L6.66508 2.66L7.38508 5.27C7.57508 5.94 8.09508 6.47 8.76508 6.65L11.3751 7.37L8.77508 8.1C8.10508 8.29 7.57508 8.81 7.39508 9.48L6.66508 12.09Z" stroke="#F7F2EE" stroke-miterlimit="10"/>
<path d="M19.5549 32.2201L17.4949 24.7501C16.9649 22.8201 15.4549 21.3201 13.5349 20.7901L6.06494 18.7301L13.8149 16.4501C15.7349 15.8901 17.2149 14.3501 17.7149 12.4201L19.5549 5.24008L21.6149 12.7101C22.1449 14.6401 23.6549 16.1401 25.5749 16.6701L33.0449 18.7301L25.5749 20.7901C23.6449 21.3201 22.1449 22.8301 21.6149 24.7501L19.5549 32.2201Z" stroke="#F7F2EE" stroke-miterlimit="10"/>
<path d="M9.2852 33.34L8.5652 30.73C8.3752 30.06 7.8552 29.53 7.1852 29.35L4.5752 28.63L7.2852 27.83C7.9552 27.63 8.4752 27.1 8.6452 26.42L9.2852 23.91L10.0052 26.52C10.1952 27.19 10.7152 27.72 11.3852 27.9L13.9952 28.62L11.3852 29.34C10.7152 29.53 10.1852 30.05 10.0052 30.72L9.2852 33.34Z" stroke="#F7F2EE" stroke-miterlimit="10"/>
</svg>
