<svg width="29" height="32" viewBox="0 0 29 32" fill="none" xmlns="http://www.w3.org/2000/svg">
<path d="M27.8327 22.2105C27.8327 24.6405 27.8327 27.0605 27.8327 29.4905C27.8327 30.2805 27.1827 30.9305 26.3927 30.9305C20.2527 30.9305 14.1127 30.9305 7.97272 30.9305C7.18272 30.9305 6.53272 30.2805 6.53272 29.4905C6.53272 27.0805 6.53272 24.6705 6.53272 22.2705C6.52272 22.1605 26.0627 22.2105 27.8327 22.2105Z" stroke="#F7F2EE" stroke-miterlimit="10"/>
<path d="M20.8329 17.8404C22.7529 18.7204 24.2929 20.2804 25.1529 22.2104M9.20288 22.2104C10.1829 20.0304 12.0329 18.3204 14.3129 17.5204" stroke="#F7F2EE" stroke-miterlimit="10"/>
<path d="M18.9828 15.6205V19.8705H16.1828V15.6205C16.1828 14.8505 16.8128 14.2205 17.5828 14.2205C18.3528 14.2205 18.9828 14.8405 18.9828 15.6205ZM17.1228 14.2905L15.3928 12.0505L16.1128 10.8005H19.0328L19.7528 12.0505L18.0228 14.2905C17.8828 14.2405 17.7228 14.2105 17.5628 14.2105C17.4228 14.2205 17.2628 14.2405 17.1228 14.2905Z" stroke="#F7F2EE" stroke-miterlimit="10"/>
<path d="M15.0828 2.93063L11.7228 1.36063C10.1128 0.60063 8.16277 1.39063 7.44277 3.01063L1.44277 16.5606C0.722767 18.1906 1.46277 20.1206 3.09277 20.8406L6.52277 22.2706C8.93277 16.8006 12.6328 8.45063 15.0828 2.93063Z" stroke="#F7F2EE" stroke-miterlimit="10"/>
</svg>
